<?xml version="1.0" encoding="UTF-8" standalone="no"?>
<!-- Created with Inkscape (http://www.inkscape.org/) -->

<svg
   xmlns:osb="http://www.openswatchbook.org/uri/2009/osb"
   xmlns:dc="http://purl.org/dc/elements/1.1/"
   xmlns:cc="http://creativecommons.org/ns#"
   xmlns:rdf="http://www.w3.org/1999/02/22-rdf-syntax-ns#"
   xmlns:svg="http://www.w3.org/2000/svg"
   xmlns="http://www.w3.org/2000/svg"
   xmlns:xlink="http://www.w3.org/1999/xlink"
   xmlns:sodipodi="http://sodipodi.sourceforge.net/DTD/sodipodi-0.dtd"
   xmlns:inkscape="http://www.inkscape.org/namespaces/inkscape"
   width="120"
   height="380"
   id="svg11791"
   version="1.1"
   inkscape:version="0.91 r13725"
   sodipodi:docname="lowFiRxII.svg"
   inkscape:export-filename="/home/vortico/src/cpp/VCV/Rack/plugins/Befaco/res/EvenVCO.png"
   inkscape:export-xdpi="80.120361"
   inkscape:export-ydpi="80.120361">
  <defs
     id="defs3">
    <linearGradient
       osb:paint="solid"
       id="linearGradient8170">
      <stop
         id="stop8172"
         offset="0"
         style="stop-color:#000000;stop-opacity:1;" />
    </linearGradient>
    <linearGradient
       osb:paint="solid"
       id="linearGradient8170-9">
      <stop
         id="stop8172-6"
         offset="0"
         style="stop-color:#000000;stop-opacity:1;" />
    </linearGradient>
    <linearGradient
       id="linearGradient8170-4"
       osb:paint="solid">
      <stop
         style="stop-color:#000000;stop-opacity:1;"
         offset="0"
         id="stop8172-8" />
    </linearGradient>
    <linearGradient
       inkscape:collect="always"
       xlink:href="#linearGradient4705"
       id="linearGradient4711"
       x1="-4.1498556"
       y1="713.2771"
       x2="58.949554"
       y2="312.3342"
       gradientUnits="userSpaceOnUse"
       gradientTransform="matrix(1.0159545,0,0,1,-1.9145331,5.2666696e-6)" />
    <linearGradient
       inkscape:collect="always"
       id="linearGradient4705">
      <stop
         style="stop-color:#000000;stop-opacity:1"
         offset="0"
         id="stop4707" />
      <stop
         style="stop-color:#25232e;stop-opacity:0;"
         offset="1"
         id="stop4709" />
    </linearGradient>
    <linearGradient
       inkscape:collect="always"
       xlink:href="#linearGradient4960"
       id="linearGradient4493"
       gradientUnits="userSpaceOnUse"
       gradientTransform="matrix(1.1816072,0,0,7.9241142,-287.70444,176.67163)"
       x1="310.66238"
       y1="-24.104065"
       x2="309.68967"
       y2="-0.7941795" />
    <linearGradient
       inkscape:collect="always"
       id="linearGradient4960">
      <stop
         style="stop-color:#ffffff;stop-opacity:1;"
         offset="0"
         id="stop4962" />
      <stop
         style="stop-color:#ffffff;stop-opacity:0;"
         offset="1"
         id="stop4964" />
    </linearGradient>
  </defs>
  <sodipodi:namedview
     inkscape:document-units="mm"
     id="base"
     pagecolor="#585600"
     bordercolor="#666666"
     borderopacity="1.0"
     inkscape:pageopacity="0"
     inkscape:pageshadow="2"
     inkscape:zoom="2.0000001"
     inkscape:cx="-28.687782"
     inkscape:cy="178.17539"
     inkscape:current-layer="layer2"
     showgrid="false"
     units="px"
     inkscape:window-width="1920"
     inkscape:window-height="1018"
     inkscape:window-x="-8"
     inkscape:window-y="-8"
     inkscape:window-maximized="1"
     showguides="true"
     inkscape:guide-bbox="true"
     inkscape:snap-global="true"
     inkscape:showpageshadow="false"
     showborder="true"
     inkscape:snap-bbox="true"
     inkscape:pagecheckerboard="true"
     fit-margin-top="0"
     fit-margin-left="0"
     fit-margin-right="0"
     fit-margin-bottom="0"
     inkscape:snap-page="true"
     inkscape:snap-nodes="true"
     inkscape:bbox-nodes="true"
     inkscape:snap-others="false"
     inkscape:bbox-paths="true"
     inkscape:snap-bbox-midpoints="true"
     inkscape:snap-bbox-edge-midpoints="true">
    <sodipodi:guide
       orientation="0,1"
       position="23.614397,39.933162"
       id="guide3097"
       inkscape:locked="false" />
    <sodipodi:guide
       orientation="0,1"
       position="-70.421855,9.8150529"
       id="guide3998"
       inkscape:locked="false" />
    <sodipodi:guide
       position="70.866142,431.22327"
       orientation="1,0"
       id="guide4007"
       inkscape:locked="false" />
    <sodipodi:guide
       position="12.746559,433.24025"
       orientation="0,1"
       id="guide4009"
       inkscape:locked="false" />
    <sodipodi:guide
       orientation="0,1"
       position="34.373447,454.50009"
       id="guide20110"
       inkscape:locked="false" />
    <sodipodi:guide
       orientation="0,1"
       position="176.63436,20.444974"
       id="guide20175"
       inkscape:locked="false" />
    <sodipodi:guide
       orientation="1,0"
       position="65.657004,123.3667"
       id="guide3487"
       inkscape:locked="false" />
    <sodipodi:guide
       orientation="0,1"
       position="47.978291,113.28315"
       id="guide5861"
       inkscape:locked="false" />
    <sodipodi:guide
       orientation="1,0"
       position="116.25236,39.513538"
       id="guide3251"
       inkscape:locked="false" />
    <sodipodi:guide
       orientation="1,0"
       position="25.646457,25.807351"
       id="guide3253"
       inkscape:locked="false" />
    <sodipodi:guide
       orientation="0,1"
       position="6.9467041,381.72765"
       id="guide7127"
       inkscape:locked="false" />
    <sodipodi:guide
       orientation="1,0"
       position="107.71654,38.467977"
       id="guide3365"
       inkscape:locked="false" />
    <sodipodi:guide
       orientation="1,0"
       position="101.69291,145.51419"
       id="guide3367"
       inkscape:locked="false" />
    <sodipodi:guide
       orientation="1,0"
       position="40.03937,139.72216"
       id="guide3369"
       inkscape:locked="false" />
    <sodipodi:guide
       orientation="0,1"
       position="92.049248,85.393793"
       id="guide3379"
       inkscape:locked="false" />
    <sodipodi:guide
       orientation="0,1"
       position="129.76868,59.439069"
       id="guide3381"
       inkscape:locked="false" />
    <sodipodi:guide
       orientation="0,1"
       position="123.6782,167.82174"
       id="guide3383"
       inkscape:locked="false" />
    <sodipodi:guide
       orientation="0,1"
       position="132.05261,224.08946"
       id="guide3385"
       inkscape:locked="false" />
    <sodipodi:guide
       orientation="0,1"
       position="79.729875,230.52411"
       id="guide3387"
       inkscape:locked="false" />
    <sodipodi:guide
       orientation="0,1"
       position="-9.2922389,259.44909"
       id="guide3389"
       inkscape:locked="false" />
    <sodipodi:guide
       orientation="1,0"
       position="36.768898,0.62266475"
       id="guide3391"
       inkscape:locked="false" />
    <sodipodi:guide
       orientation="0,1"
       position="125.48233,292.7056"
       id="guide3393"
       inkscape:locked="false" />
    <sodipodi:guide
       orientation="0,1"
       position="80.943104,306.10286"
       id="guide3395"
       inkscape:locked="false" />
    <sodipodi:guide
       orientation="1,0"
       position="-1.4826966e-09,-96.184953"
       id="guide3397"
       inkscape:locked="false" />
    <sodipodi:guide
       orientation="1,0"
       position="141.73228,-36.184947"
       id="guide3400"
       inkscape:locked="false" />
    <sodipodi:guide
       orientation="0,1"
       position="343.6539,464.77568"
       id="guide5653"
       inkscape:locked="false" />
    <sodipodi:guide
       orientation="1,0"
       position="26.574803,495.81505"
       id="guide6797"
       inkscape:locked="false" />
    <sodipodi:guide
       orientation="1,0"
       position="116.5748,489.587"
       id="guide6799"
       inkscape:locked="false" />
    <sodipodi:guide
       position="802.39878,59.439069"
       orientation="0,1"
       id="guide4796" />
  </sodipodi:namedview>
  <metadata
     id="metadata4">
    <rdf:RDF>
      <cc:Work
         rdf:about="">
        <dc:format>image/svg+xml</dc:format>
        <dc:type
           rdf:resource="http://purl.org/dc/dcmitype/StillImage" />
        <dc:title></dc:title>
      </cc:Work>
    </rdf:RDF>
  </metadata>
  <g
     inkscape:groupmode="layer"
     id="layer2"
     inkscape:label="Graficos"
     style="display:inline"
     transform="translate(0,-84.775712)">
    <path
       style="opacity:1;fill:#25232e;fill-opacity:1;fill-rule:nonzero;stroke:none;stroke-width:0.44961986;stroke-linecap:square;stroke-linejoin:round;stroke-miterlimit:4;stroke-dasharray:none;stroke-dashoffset:0;stroke-opacity:1;paint-order:normal"
       d="m 0,84.775711 120,0 0,379.999999 -120,0 z"
       id="rect2069"
       inkscape:connector-curvature="0" />
    <path
       style="display:inline;opacity:1;fill:url(#linearGradient4711);fill-opacity:1;fill-rule:nonzero;stroke:none;stroke-width:0.44961986;stroke-linecap:square;stroke-linejoin:round;stroke-miterlimit:4;stroke-dasharray:none;stroke-dashoffset:0;stroke-opacity:1;paint-order:normal"
       d="m -1.9145352,84.775709 121.9145352,0 0,380.000001 -121.9145352,0 z"
       id="rect4703"
       inkscape:connector-curvature="0" />
    <text
       xml:space="preserve"
       style="font-style:normal;font-variant:normal;font-weight:normal;font-stretch:normal;font-size:9.49925041px;line-height:125%;font-family:'Franklin Gothic Medium';-inkscape-font-specification:'Franklin Gothic Medium, Normal';text-align:start;letter-spacing:0px;word-spacing:0px;writing-mode:lr-tb;text-anchor:start;fill:#ffffff;fill-opacity:1;stroke:none;stroke-width:1px;stroke-linecap:butt;stroke-linejoin:miter;stroke-opacity:1"
       x="86.175217"
       y="442.23334"
       id="text4591"
       sodipodi:linespacing="125%"><tspan
         sodipodi:role="line"
         id="tspan4593"
         x="86.175217"
         y="442.23334" /></text>
    <path
       style="opacity:1;fill:none;fill-opacity:1;fill-rule:nonzero;stroke:#474748;stroke-width:1.41732275;stroke-miterlimit:4;stroke-dasharray:none;stroke-dashoffset:0;stroke-opacity:1"
       d="m 16.575614,99.509613 87.529746,0 c 2.69397,0 4.86277,3.440107 4.86277,7.713227 0,4.27313 -2.1688,7.71323 -4.86277,7.71323 l -87.529747,0 c -2.693969,0 -4.862761,-3.4401 -4.862761,-7.71323 0,-4.27312 2.168792,-7.713227 4.862761,-7.713227 z"
       id="rect4806"
       inkscape:connector-curvature="0" />
    <path
       style="opacity:0;fill:#ffffff;fill-opacity:1;fill-rule:nonzero;stroke:none;stroke-width:3;stroke-miterlimit:4;stroke-dasharray:9, 3;stroke-dashoffset:0;stroke-opacity:1"
       d="m 235.76398,335.70106 a 22.550905,22.500551 0 0 1 4.49139,-31.50246 22.550905,22.500551 0 0 1 31.57325,4.47944 22.550905,22.500551 0 0 1 -4.48753,31.50301"
       id="path4794"
       inkscape:connector-curvature="0" />
    <path
       style="opacity:0;fill:#ffffff;fill-opacity:1;fill-rule:nonzero;stroke:#181d1c;stroke-width:3;stroke-miterlimit:4;stroke-dasharray:8.99999996, 2.99999998;stroke-dashoffset:0;stroke-opacity:1"
       d="m 176.43992,314.76527 a 2.8949587,2.962302 0 0 1 -0.57658,4.14745 2.8949587,2.962302 0 0 1 -4.0532,-0.58974 2.8949587,2.962302 0 0 1 0.57609,-4.14752"
       id="path4915"
       inkscape:connector-curvature="0" />
    <path
       style="opacity:0;fill:#ffffff;fill-opacity:1;fill-rule:nonzero;stroke:none;stroke-width:3;stroke-miterlimit:4;stroke-dasharray:9, 3;stroke-dashoffset:0;stroke-opacity:1"
       d="m 63.24145,243.63958 a 22.550905,22.500551 0 0 1 4.491389,-31.50247 22.550905,22.500551 0 0 1 31.573241,4.47944 22.550905,22.500551 0 0 1 -4.487531,31.50301"
       id="path5041"
       inkscape:connector-curvature="0" />
    <path
       style="opacity:0;fill:#ffffff;fill-opacity:1;fill-rule:nonzero;stroke:#181d1c;stroke-width:3;stroke-miterlimit:4;stroke-dasharray:8.99999996, 2.99999998;stroke-dashoffset:0;stroke-opacity:1"
       d="m 177.19508,346.78703 a 2.8949587,2.962302 0 0 1 -0.57658,4.14744 2.8949587,2.962302 0 0 1 -4.05319,-0.58974 2.8949587,2.962302 0 0 1 0.57608,-4.14751"
       id="path5057"
       inkscape:connector-curvature="0" />
    <path
       id="path4495"
       d="m 5.6478933,120.39473 109.0111367,0 0,47.92534 -109.0111367,0 z"
       style="display:inline;opacity:0.73400005;fill:#ff7c00;fill-opacity:1;fill-rule:nonzero;stroke:#000000;stroke-width:1.49999988;stroke-miterlimit:4;stroke-dasharray:none;stroke-dashoffset:0;stroke-opacity:1"
       inkscape:connector-curvature="0" />
    <path
       id="path4491"
       d="m 8.561737,123.95383 106.732093,0 0,45.11624 -106.732093,0 z"
       style="display:inline;opacity:0.48800001;fill:url(#linearGradient4493);fill-opacity:1;fill-rule:nonzero;stroke:none;stroke-width:0.42333335;stroke-miterlimit:4;stroke-dasharray:none;stroke-dashoffset:0;stroke-opacity:1"
       inkscape:connector-curvature="0" />
    <path
       inkscape:connector-curvature="0"
       id="path4510"
       d="m 17.230649,222.87444 a 2.5786507,2.5778286 0 0 1 -2.578651,2.57782 2.5786507,2.5778286 0 0 1 -2.578651,-2.57782 2.5786507,2.5778286 0 0 1 2.578651,-2.57783 2.5786507,2.5778286 0 0 1 2.578651,2.57783 z"
       style="opacity:1;fill:#3e67d0;fill-opacity:1;fill-rule:nonzero;stroke:#ffffff;stroke-width:0.99921256;stroke-miterlimit:4;stroke-dasharray:none;stroke-dashoffset:0;stroke-opacity:1" />
    <path
       inkscape:connector-curvature="0"
       id="circle4512"
       d="m 57.313901,222.87444 a 2.5786507,2.5778286 0 0 1 -2.578651,2.57782 2.5786507,2.5778286 0 0 1 -2.578651,-2.57782 2.5786507,2.5778286 0 0 1 2.578651,-2.57783 2.5786507,2.5778286 0 0 1 2.578651,2.57783 z"
       style="opacity:1;fill:#3e67d0;fill-opacity:1;fill-rule:nonzero;stroke:#ffffff;stroke-width:0.99921256;stroke-miterlimit:4;stroke-dasharray:none;stroke-dashoffset:0;stroke-opacity:1" />
    <path
       inkscape:connector-curvature="0"
       id="circle4514"
       d="m 37.22876,177.60698 a 2.5786507,2.5778286 0 0 1 -2.57865,2.57783 2.5786507,2.5778286 0 0 1 -2.578651,-2.57783 2.5786507,2.5778286 0 0 1 2.578651,-2.57783 2.5786507,2.5778286 0 0 1 2.57865,2.57783 z"
       style="opacity:1;fill:#3e67d0;fill-opacity:1;fill-rule:nonzero;stroke:#ffffff;stroke-width:0.99921256;stroke-miterlimit:4;stroke-dasharray:none;stroke-dashoffset:0;stroke-opacity:1" />
    <path
       inkscape:connector-curvature="0"
       id="circle4518"
       d="m 12.11987,194.56802 a 2.5786507,2.5778286 0 0 1 -2.578651,2.57783 2.5786507,2.5778286 0 0 1 -2.578651,-2.57783 2.5786507,2.5778286 0 0 1 2.578651,-2.57782 2.5786507,2.5778286 0 0 1 2.578651,2.57782 z"
       style="opacity:1;fill:#3e67d0;fill-opacity:1;fill-rule:nonzero;stroke:#ffffff;stroke-width:0.99921256;stroke-miterlimit:4;stroke-dasharray:none;stroke-dashoffset:0;stroke-opacity:1" />
    <path
       inkscape:connector-curvature="0"
       id="circle4520"
       d="m 62.151593,194.56802 a 2.5786507,2.5778286 0 0 1 -2.578651,2.57783 2.5786507,2.5778286 0 0 1 -2.578651,-2.57783 2.5786507,2.5778286 0 0 1 2.578651,-2.57782 2.5786507,2.5778286 0 0 1 2.578651,2.57782 z"
       style="opacity:1;fill:#3e67d0;fill-opacity:1;fill-rule:nonzero;stroke:#ffffff;stroke-width:0.99921256;stroke-miterlimit:4;stroke-dasharray:none;stroke-dashoffset:0;stroke-opacity:1" />
    <path
       inkscape:connector-curvature="0"
       id="path4522"
       d="m 13.48545,224.12879 a 28.784151,28.772554 0 0 1 1.204094,-40.18457 28.784151,28.772554 0 0 1 40.218042,0.24528 28.784151,28.772554 0 0 1 0.713473,40.19626"
       style="opacity:1;fill:none;fill-opacity:1;fill-rule:nonzero;stroke:#ffffff;stroke-width:2.83464575;stroke-miterlimit:4;stroke-dasharray:none;stroke-dashoffset:0;stroke-opacity:1" />
    <g
       transform="matrix(1.0625567,0,0,0.94112625,-25.972841,2)"
       style="font-style:normal;font-weight:normal;font-size:8.93097019px;line-height:125%;font-family:sans-serif;letter-spacing:0px;word-spacing:0px;fill:#ffffff;fill-opacity:1;stroke:none;stroke-width:1px;stroke-linecap:butt;stroke-linejoin:miter;stroke-opacity:1"
       id="text4546">
      <path
         d="m 46.025841,244.80148 0,2.38537 1.412908,0 q 0.710814,0 1.050959,-0.29217 0.344505,-0.29654 0.344505,-0.90269 0,-0.61052 -0.344505,-0.89833 -0.340145,-0.29218 -1.050959,-0.29218 l -1.412908,0 z m 0,-2.67754 0,1.96237 1.303887,0 q 0.645402,0 0.959382,-0.23985 0.31834,-0.2442 0.31834,-0.74134 0,-0.49277 -0.31834,-0.73698 -0.31398,-0.2442 -0.959382,-0.2442 l -1.303887,0 z m -0.880886,-0.7239 2.250186,0 q 1.00735,0 1.552453,0.41864 0.545103,0.41864 0.545103,1.1905 0,0.59744 -0.279092,0.95066 -0.279093,0.35323 -0.819835,0.44045 0.649762,0.13954 1.00735,0.58435 0.361949,0.44044 0.361949,1.10329 0,0.87216 -0.593073,1.34749 -0.593072,0.47533 -1.687639,0.47533 l -2.337402,0 0,-6.51071 z"
         id="path4732"
         inkscape:connector-curvature="0"
         style="fill:#ffffff;fill-opacity:1" />
      <path
         d="m 53.443605,242.26784 -1.194866,3.2401 2.394093,0 -1.199227,-3.2401 z m -0.497134,-0.8678 0.998629,0 2.48131,6.51071 -0.915774,0 -0.593072,-1.67019 -2.934835,0 -0.593073,1.67019 -0.928855,0 2.48567,-6.51071 z"
         id="path4734"
         inkscape:connector-curvature="0"
         style="fill:#ffffff;fill-opacity:1" />
      <path
         d="m 57.372709,241.40004 1.186145,0 2.886866,5.44667 0,-5.44667 0.854722,0 0,6.51071 -1.186145,0 -2.886866,-5.44667 0,5.44667 -0.854722,0 0,-6.51071 z"
         id="path4736"
         inkscape:connector-curvature="0"
         style="fill:#ffffff;fill-opacity:1" />
      <path
         d="m 64.053494,241.40004 0.880886,0 0,2.75168 2.921753,-2.75168 1.133815,0 -3.231372,3.03513 3.462495,3.47558 -1.159979,0 -3.126712,-3.13543 0,3.13543 -0.880886,0 0,-6.51071 z"
         id="path4738"
         inkscape:connector-curvature="0"
         style="fill:#ffffff;fill-opacity:1" />
    </g>
    <g
       transform="matrix(1.0625567,0,0,0.94112625,26.835694,-24.2211)"
       style="font-style:normal;font-weight:normal;font-size:8.93097019px;line-height:125%;font-family:sans-serif;letter-spacing:0px;word-spacing:0px;fill:#ffffff;fill-opacity:1;stroke:none;stroke-width:1px;stroke-linecap:butt;stroke-linejoin:miter;stroke-opacity:1"
       id="text4550">
      <path
         d="m 43.999569,314.45059 0,0.85908 q -0.501495,-0.23984 -0.946299,-0.35759 -0.444805,-0.11774 -0.859083,-0.11774 -0.719536,0 -1.11201,0.27909 -0.388114,0.2791 -0.388114,0.79367 0,0.43173 0.257289,0.65413 0.261649,0.21804 0.985546,0.35322 l 0.532021,0.10902 q 0.985547,0.18752 1.452155,0.66285 0.470969,0.47097 0.470969,1.26464 0,0.9463 -0.63668,1.43471 -0.63232,0.48841 -1.857712,0.48841 -0.462248,0 -0.985547,-0.10466 -0.518938,-0.10466 -1.077123,-0.30961 l 0,-0.90706 q 0.536381,0.3009 1.050958,0.45353 0.514578,0.15263 1.011712,0.15263 0.754423,0 1.16434,-0.29654 0.409918,-0.29653 0.409918,-0.846 0,-0.47969 -0.296536,-0.75006 -0.292176,-0.27037 -0.963743,-0.40556 l -0.536381,-0.10466 q -0.985547,-0.19623 -1.42599,-0.61487 -0.440443,-0.41864 -0.440443,-1.16434 0,-0.86345 0.606154,-1.36058 0.610516,-0.49713 1.678918,-0.49713 0.457887,0 0.933217,0.0829 0.47533,0.0829 0.972464,0.24857 z"
         id="path4719"
         inkscape:connector-curvature="0"
         style="fill:#ffffff;fill-opacity:1" />
      <path
         d="m 48.116188,315.10471 -1.194866,3.24009 2.394093,0 -1.199227,-3.24009 z m -0.497134,-0.8678 0.998629,0 2.481309,6.51071 -0.915773,0 -0.593072,-1.6702 -2.934836,0 -0.593072,1.6702 -0.928856,0 2.485671,-6.51071 z"
         id="path4721"
         inkscape:connector-curvature="0"
         style="fill:#ffffff;fill-opacity:1" />
      <path
         d="m 52.045292,314.23691 1.312608,0 1.661475,4.4306 1.670196,-4.4306 1.312608,0 0,6.51071 -0.859082,0 0,-5.71704 -1.678918,4.46548 -0.885248,0 -1.678917,-4.46548 0,5.71704 -0.854722,0 0,-6.51071 z"
         id="path4723"
         inkscape:connector-curvature="0"
         style="fill:#ffffff;fill-opacity:1" />
      <path
         d="m 60.636117,314.9608 0,2.44643 1.107649,0 q 0.614877,0 0.95066,-0.31834 0.335784,-0.31834 0.335784,-0.90705 0,-0.58436 -0.335784,-0.9027 -0.335783,-0.31834 -0.95066,-0.31834 l -1.107649,0 z m -0.880887,-0.72389 1.988536,0 q 1.094567,0 1.652753,0.49713 0.562547,0.49277 0.562547,1.4478 0,0.96374 -0.562547,1.45651 -0.558186,0.49277 -1.652753,0.49277 l -1.107649,0 0,2.6165 -0.880887,0 0,-6.51071 z"
         id="path4725"
         inkscape:connector-curvature="0"
         style="fill:#ffffff;fill-opacity:1" />
      <path
         d="m 65.14521,314.23691 0.880887,0 0,5.76937 3.17032,0 0,0.74134 -4.051207,0 0,-6.51071 z"
         id="path4727"
         inkscape:connector-curvature="0"
         style="fill:#ffffff;fill-opacity:1" />
      <path
         d="m 70.11655,314.23691 4.11662,0 0,0.74134 -3.235733,0 0,1.92748 3.100547,0 0,0.74134 -3.100547,0 0,2.35921 3.314227,0 0,0.74134 -4.195114,0 0,-6.51071 z"
         id="path4729"
         inkscape:connector-curvature="0"
         style="fill:#ffffff;fill-opacity:1" />
    </g>
    <path
       style="display:inline;opacity:1;fill:none;fill-opacity:1;fill-rule:nonzero;stroke:#ffffff;stroke-width:1.06299222;stroke-miterlimit:4;stroke-dasharray:none;stroke-dashoffset:0;stroke-opacity:1"
       d="m 13.910207,293.04011 a 28.1388,28.576761 0 0 1 21.643818,-10.52507 28.1388,28.576761 0 0 1 21.767721,10.25814"
       id="path4579"
       inkscape:connector-curvature="0" />
    <path
       style="display:inline;opacity:1;fill:#3e67d0;fill-opacity:1;fill-rule:nonzero;stroke:#ffffff;stroke-width:1.06299222;stroke-miterlimit:4;stroke-dasharray:none;stroke-dashoffset:0;stroke-opacity:1"
       inkscape:transform-center-x="0.078263168"
       inkscape:transform-center-y="-0.089503129"
       d="m 57.594289,289.54259 0.83175,2.53216 0.888327,2.51946 -2.546463,-0.81561 -2.557572,-0.75875 1.714724,-1.71656 z"
       id="path4581"
       inkscape:connector-curvature="0" />
    <path
       style="display:inline;opacity:1;fill:#3e67d0;fill-opacity:1;fill-rule:nonzero;stroke:#ffffff;stroke-width:1.06299222;stroke-miterlimit:4;stroke-dasharray:none;stroke-dashoffset:0;stroke-opacity:1"
       inkscape:transform-center-x="-0.07826083"
       inkscape:transform-center-y="-0.089503129"
       d="m 13.692191,289.54259 -0.83175,2.53216 -0.888327,2.51946 2.546463,-0.81561 2.557572,-0.75875 -1.714724,-1.71656 z"
       id="path4621"
       inkscape:connector-curvature="0" />
    <g
       transform="matrix(1.0625567,0,0,0.94112625,-23.409329,7.8911765)"
       style="font-style:normal;font-weight:normal;font-size:8.93097019px;line-height:125%;font-family:sans-serif;letter-spacing:0px;word-spacing:0px;fill:#ffffff;fill-opacity:1;stroke:none;stroke-width:1px;stroke-linecap:butt;stroke-linejoin:miter;stroke-opacity:1"
       id="text4580">
      <path
         d="m 74.677967,334.7214 5.507722,0 0,0.74134 -2.311237,0 0,5.76938 -0.885247,0 0,-5.76938 -2.311238,0 0,-0.74134 z"
         id="path4707"
         inkscape:connector-curvature="0"
         style="fill:#ffffff;fill-opacity:1;stroke:none;stroke-opacity:1" />
      <path
         d="m 79.562092,339.30463 0,-2.95664 0.802391,0 0,2.92612 q 0,0.69337 0.270372,1.04223 0.270371,0.34451 0.811113,0.34451 0.649763,0 1.024794,-0.41428 0.379392,-0.41428 0.379392,-1.12945 l 0,-2.76913 0.802392,0 0,4.88413 -0.802392,0 0,-0.75007 q -0.292175,0.44481 -0.680289,0.66285 -0.383752,0.21368 -0.893969,0.21368 -0.841639,0 -1.277722,-0.5233 -0.436082,-0.5233 -0.436082,-1.53065 z m 2.019062,-3.07438 0,0 z"
         id="path4709"
         inkscape:connector-curvature="0"
         style="fill:#ffffff;fill-opacity:1;stroke:none;stroke-opacity:1" />
      <path
         d="m 89.373949,338.2842 0,2.94792 -0.802392,0 0,-2.92176 q 0,-0.69337 -0.270371,-1.03787 -0.270371,-0.34451 -0.811113,-0.34451 -0.649763,0 -1.024794,0.41428 -0.375031,0.41428 -0.375031,1.12945 l 0,2.76041 -0.806753,0 0,-4.88413 0.806753,0 0,0.75879 q 0.287814,-0.44045 0.675928,-0.65849 0.392474,-0.21804 0.902691,-0.21804 0.841639,0 1.273361,0.5233 0.431721,0.51894 0.431721,1.53065 z"
         id="path4711"
         inkscape:connector-curvature="0"
         style="fill:#ffffff;fill-opacity:1;stroke:none;stroke-opacity:1" />
      <path
         d="m 95.160765,338.58946 0,0.39247 -3.689259,0 q 0.05233,0.82856 0.497134,1.26464 0.449165,0.43172 1.247197,0.43172 0.462247,0 0.893969,-0.11338 0.436082,-0.11338 0.863443,-0.34014 l 0,0.75878 q -0.431722,0.18315 -0.885247,0.27909 -0.453526,0.0959 -0.920135,0.0959 -1.168701,0 -1.85335,-0.68029 -0.680289,-0.68029 -0.680289,-1.84027 0,-1.19922 0.645402,-1.90132 0.649763,-0.70645 1.748691,-0.70645 0.985547,0 1.556815,0.63668 0.575629,0.63232 0.575629,1.72253 z m -0.802392,-0.23549 q -0.0087,-0.65848 -0.37067,-1.05096 -0.357588,-0.39247 -0.95066,-0.39247 -0.671567,0 -1.077124,0.37939 -0.401196,0.37939 -0.462248,1.0684 l 2.860702,-0.004 z"
         id="path4713"
         inkscape:connector-curvature="0"
         style="fill:#ffffff;fill-opacity:1;stroke:none;stroke-opacity:1" />
    </g>
    <path
       style="fill:none;fill-rule:evenodd;stroke:#ffffff;stroke-width:1px;stroke-linecap:butt;stroke-linejoin:miter;stroke-opacity:1"
       d="M 91.35783,294.08226 C 74.533031,294.42189 76.845056,317.1275 61.047527,315.79807"
       id="path4584"
       inkscape:connector-curvature="0" />
    <path
       style="opacity:1;fill:none;fill-opacity:1;fill-rule:nonzero;stroke:#ffffff;stroke-width:1;stroke-miterlimit:4;stroke-dasharray:none;stroke-dashoffset:0;stroke-opacity:1"
       d="m 91.04524,294.08392 a 15.609828,15.571564 0 0 1 13.75979,7.8202 15.609828,15.571564 0 0 1 -0.17517,15.7965 15.609828,15.571564 0 0 1 -13.92984,7.51464"
       id="path4586"
       inkscape:connector-curvature="0" />
    <path
       style="display:inline;opacity:1;fill:#3e67d0;fill-opacity:1;fill-rule:nonzero;stroke:#ffffff;stroke-width:1.06299222;stroke-miterlimit:4;stroke-dasharray:none;stroke-dashoffset:0;stroke-opacity:1"
       inkscape:transform-center-x="0.94159285"
       inkscape:transform-center-y="-0.18173238"
       d="m 64.176006,318.09514 -2.49445,-0.9388 -2.520018,-0.88676 2.231469,-1.47317 2.194123,-1.51747 0.262983,2.41199 z"
       id="path4588"
       inkscape:connector-curvature="0" />
    <path
       inkscape:connector-curvature="0"
       id="ellipse4610"
       d="m 68.939307,264.65504 a 2.5786507,2.5778286 0 0 1 -2.578651,2.57782 2.5786507,2.5778286 0 0 1 -2.578651,-2.57782 2.5786507,2.5778286 0 0 1 2.578651,-2.57783 2.5786507,2.5778286 0 0 1 2.578651,2.57783 z"
       style="opacity:1;fill:#3e67d0;fill-opacity:1;fill-rule:nonzero;stroke:#ffffff;stroke-width:0.99921256;stroke-miterlimit:4;stroke-dasharray:none;stroke-dashoffset:0;stroke-opacity:1" />
    <path
       inkscape:connector-curvature="0"
       id="ellipse4612"
       d="m 109.02256,264.65504 a 2.5786507,2.5778286 0 0 1 -2.57865,2.57782 2.5786507,2.5778286 0 0 1 -2.57865,-2.57782 2.5786507,2.5778286 0 0 1 2.57865,-2.57783 2.5786507,2.5778286 0 0 1 2.57865,2.57783 z"
       style="opacity:1;fill:#3e67d0;fill-opacity:1;fill-rule:nonzero;stroke:#ffffff;stroke-width:0.99921256;stroke-miterlimit:4;stroke-dasharray:none;stroke-dashoffset:0;stroke-opacity:1" />
    <path
       inkscape:connector-curvature="0"
       id="ellipse4614"
       d="m 88.937418,219.38758 a 2.5786507,2.5778286 0 0 1 -2.57865,2.57783 2.5786507,2.5778286 0 0 1 -2.578651,-2.57783 2.5786507,2.5778286 0 0 1 2.578651,-2.57783 2.5786507,2.5778286 0 0 1 2.57865,2.57783 z"
       style="opacity:1;fill:#3e67d0;fill-opacity:1;fill-rule:nonzero;stroke:#ffffff;stroke-width:0.99921256;stroke-miterlimit:4;stroke-dasharray:none;stroke-dashoffset:0;stroke-opacity:1" />
    <path
       inkscape:connector-curvature="0"
       id="ellipse4616"
       d="m 63.828528,236.34862 a 2.5786507,2.5778286 0 0 1 -2.578651,2.57783 2.5786507,2.5778286 0 0 1 -2.578651,-2.57783 2.5786507,2.5778286 0 0 1 2.578651,-2.57782 2.5786507,2.5778286 0 0 1 2.578651,2.57782 z"
       style="opacity:1;fill:#3e67d0;fill-opacity:1;fill-rule:nonzero;stroke:#ffffff;stroke-width:0.99921256;stroke-miterlimit:4;stroke-dasharray:none;stroke-dashoffset:0;stroke-opacity:1" />
    <path
       inkscape:connector-curvature="0"
       id="ellipse4618"
       d="m 113.86025,236.34862 a 2.5786507,2.5778286 0 0 1 -2.57865,2.57783 2.5786507,2.5778286 0 0 1 -2.57865,-2.57783 2.5786507,2.5778286 0 0 1 2.57865,-2.57782 2.5786507,2.5778286 0 0 1 2.57865,2.57782 z"
       style="opacity:1;fill:#3e67d0;fill-opacity:1;fill-rule:nonzero;stroke:#ffffff;stroke-width:0.99921256;stroke-miterlimit:4;stroke-dasharray:none;stroke-dashoffset:0;stroke-opacity:1" />
    <path
       inkscape:connector-curvature="0"
       id="path4620"
       d="m 65.194108,265.90939 a 28.784151,28.772554 0 0 1 1.204094,-40.18457 28.784151,28.772554 0 0 1 40.218038,0.24528 28.784151,28.772554 0 0 1 0.71348,40.19626"
       style="opacity:1;fill:none;fill-opacity:1;fill-rule:nonzero;stroke:#ffffff;stroke-width:2.83464575;stroke-miterlimit:4;stroke-dasharray:none;stroke-dashoffset:0;stroke-opacity:1" />
    <g
       style="font-style:normal;font-variant:normal;font-weight:normal;font-stretch:normal;font-size:10.12231445px;line-height:125%;font-family:'Good Times';-inkscape-font-specification:'Good Times, Normal';text-align:start;letter-spacing:0px;word-spacing:0px;writing-mode:lr-tb;text-anchor:start;fill:#474748;fill-opacity:1;stroke:none;stroke-width:1px;stroke-linecap:butt;stroke-linejoin:miter;stroke-opacity:1"
       id="text4632"
       transform="translate(4.0000015,0)">
      <path
         d="m 43.236842,458.42081 0,0 z m 5.921554,0.0304 0,-3.19865 -3.704767,0 0,-1.14382 3.704767,0 0,-3.04682 1.285534,0 0,7.38929 -1.285534,0 z m -5.921554,0 0,-7.38929 1.285534,0 0,7.38929 -1.285534,0 z"
         id="path4658"
         inkscape:connector-curvature="0"
         style="fill:#474748;fill-opacity:1" />
      <path
         d="m 51.505665,458.42081 0,0 z m 3.573177,0 q -0.769295,0 -1.427246,-0.28343 -0.647828,-0.29355 -1.133699,-0.78954 -0.475749,-0.50611 -0.749051,-1.19443 -0.263181,-0.68832 -0.263181,-1.48798 0,-0.80979 0.263181,-1.47786 0.273302,-0.66807 0.749051,-1.1337 0.485871,-0.47575 1.133699,-0.72881 0.657951,-0.26318 1.427246,-0.26318 l 1.79165,0 q 0.799663,0 1.457613,0.26318 0.668073,0.26318 1.143822,0.73893 0.475749,0.47575 0.738929,1.14382 0.26318,0.65796 0.26318,1.45762 0,0.79966 -0.273302,1.48798 -0.263181,0.68832 -0.749052,1.19443 -0.475748,0.49599 -1.133699,0.78954 -0.65795,0.28343 -1.447491,0.28343 l -1.79165,0 z m 1.79165,-1.28554 q 0.506116,0 0.931253,-0.1822 0.425137,-0.1822 0.728807,-0.49599 0.313791,-0.32392 0.485871,-0.7693 0.172079,-0.44538 0.172079,-0.96162 0,-0.51624 -0.172079,-0.9515 -0.17208,-0.44538 -0.485871,-0.75917 -0.30367,-0.31379 -0.728807,-0.48587 -0.425137,-0.1822 -0.931253,-0.1822 l -1.79165,0 q -0.495993,0 -0.92113,0.1822 -0.415015,0.17208 -0.718684,0.48587 -0.30367,0.31379 -0.475749,0.74905 -0.17208,0.43526 -0.17208,0.96162 0,0.51624 0.17208,0.96162 0.172079,0.44538 0.475749,0.7693 0.303669,0.31379 0.718684,0.49599 0.425137,0.1822 0.92113,0.1822 l 1.79165,0 z"
         id="path4660"
         inkscape:connector-curvature="0"
         style="fill:#474748;fill-opacity:1" />
      <path
         d="m 61.524226,458.42081 0,0 z m 6.832562,0 -1.862505,-2.04471 -2.75327,0 0,-1.1337 3.067061,0 q 0.69844,0 1.052721,-0.37453 0.354281,-0.38464 0.354281,-1.10333 0,-0.71868 -0.374526,-1.06284 -0.364403,-0.35428 -1.032476,-0.35428 l -4.008436,0 0,6.07339 -1.275412,0 0,-7.35893 5.283848,0 q 0.627584,0 1.123577,0.19233 0.495994,0.1822 0.840152,0.53648 0.344159,0.34416 0.526361,0.84015 0.182201,0.496 0.182201,1.11346 0,0.92113 -0.404892,1.54871 -0.39477,0.61746 -1.113455,0.89077 l 2.216787,2.23703 -1.822017,0 z"
         id="path4662"
         inkscape:connector-curvature="0"
         style="fill:#474748;fill-opacity:1" />
      <path
         d="m 70.359741,458.42081 0,0 z m 8.168708,0 -1.103332,-1.85239 -3.482076,0 0.607339,-1.0426 2.257276,0 -1.639815,-2.75326 -3.340364,5.64825 -1.467736,0 4.231128,-7.04513 q 0.111345,-0.19233 0.26318,-0.30367 0.151835,-0.11135 0.364403,-0.11135 0.212569,0 0.354281,0.11135 0.151835,0.11134 0.263181,0.30367 l 4.241249,7.04513 -1.548714,0 z"
         id="path4664"
         inkscape:connector-curvature="0"
         style="fill:#474748;fill-opacity:1" />
    </g>
    <g
       transform="matrix(0.85140327,0,0,0.87462622,7.8896032,16.251202)"
       style="font-style:normal;font-variant:normal;font-weight:normal;font-stretch:normal;font-size:14.67329884px;line-height:125%;font-family:'Good Times';-inkscape-font-specification:'Good Times, Normal';text-align:start;letter-spacing:0px;word-spacing:0px;writing-mode:lr-tb;text-anchor:start;fill:none;fill-opacity:1;stroke:#ffffff;stroke-width:0.92706692;stroke-linecap:butt;stroke-linejoin:miter;stroke-miterlimit:4;stroke-dasharray:none;stroke-opacity:1"
       id="text4508">
      <path
         d="m 58.417307,109.33844 0,-10.667488 6.177459,0 q 1.129844,0 2.083608,0.381505 0.953765,0.381506 1.64341,1.071153 0.689645,0.68964 1.071151,1.65808 0.396179,0.95377 0.396179,2.11296 0,1.15919 -0.396179,2.15697 -0.381506,0.99779 -1.071151,1.73145 -0.689645,0.71899 -1.64341,1.14452 -0.953764,0.41085 -2.083608,0.41085 l -6.177459,0 z m 6.177459,-1.86351 q 0.718992,0 1.320597,-0.26412 0.616278,-0.26412 1.056477,-0.71899 0.454873,-0.46955 0.704319,-1.11517 0.249446,-0.64563 0.249446,-1.39396 0,-0.74834 -0.249446,-1.37929 -0.249446,-0.64563 -0.704319,-1.1005 -0.440199,-0.45487 -1.056477,-0.70432 -0.601605,-0.26412 -1.320597,-0.26412 l -4.328623,0 0,6.94047 4.328623,0 z"
         style="stroke:#ffffff;stroke-width:0.92706692;stroke-miterlimit:4;stroke-dasharray:none;stroke-opacity:1"
         id="path4580"
         inkscape:connector-curvature="0" />
      <path
         d="m 81.218238,109.33844 -2.699887,-2.96401 -3.991137,0 0,-1.64341 4.446009,0 q 1.012458,0 1.526023,-0.54291 0.513566,-0.55758 0.513566,-1.59939 0,-1.0418 -0.542912,-1.54069 -0.528239,-0.51357 -1.496677,-0.51357 l -5.810626,0 0,8.80398 -1.848836,0 0,-10.667488 7.659462,0 q 0.909745,0 1.628736,0.278792 0.718992,0.26412 1.217884,0.777685 0.498892,0.498891 0.763012,1.217881 0.264119,0.71899 0.264119,1.61407 0,1.33527 -0.586932,2.24501 -0.572259,0.89507 -1.614063,1.29125 l 3.213453,3.2428 -2.641194,0 z"
         style="stroke:#ffffff;stroke-width:0.92706692;stroke-miterlimit:4;stroke-dasharray:none;stroke-opacity:1"
         id="path4582"
         inkscape:connector-curvature="0" />
      <path
         d="m 94.034446,98.670952 1.819489,0 0,5.957358 q 0,1.23256 -0.322813,2.15698 -0.322812,0.90974 -1.012457,1.51135 -0.689645,0.6016 -1.790143,0.89507 -1.085824,0.29346 -2.641193,0.29346 -1.540697,0 -2.641194,-0.29346 -1.085824,-0.29347 -1.775469,-0.89507 -0.689645,-0.60161 -1.012458,-1.51135 -0.322813,-0.92442 -0.322813,-2.15698 l 0,-5.957358 1.922203,0 0,5.957358 q 0,0.80703 0.190752,1.37929 0.205427,0.57226 0.645626,0.93909 0.454872,0.36683 1.20321,0.54291 0.748338,0.16141 1.848836,0.16141 1.100497,0 1.848835,-0.16141 0.748339,-0.17608 1.188538,-0.54291 0.454872,-0.36683 0.645625,-0.93909 0.205426,-0.57226 0.205426,-1.37929 l 0,-5.957358 z"
         style="stroke:#ffffff;stroke-width:0.92706692;stroke-miterlimit:4;stroke-dasharray:none;stroke-opacity:1"
         id="path4585"
         inkscape:connector-curvature="0" />
      <path
         d="m 110.24271,109.33844 -2.03959,-7.49806 -3.0227,6.94047 q -0.16141,0.33749 -0.39618,0.52824 -0.2201,0.17608 -0.55758,0.17608 -0.6603,0 -0.95377,-0.70432 l -3.00802,-6.94047 -2.039593,7.49806 -1.834162,0 2.743907,-10.036536 q 0.190753,-0.763012 0.924418,-0.763012 0.29347,0 0.54291,0.161406 0.26412,0.161407 0.39618,0.469546 l 3.28682,7.542076 3.28682,-7.542076 q 0.26412,-0.630952 0.89507,-0.630952 0.67497,0 0.89507,0.763012 l 2.72923,10.036536 -1.84883,0 z"
         style="stroke:#ffffff;stroke-width:0.92706692;stroke-miterlimit:4;stroke-dasharray:none;stroke-opacity:1"
         id="path4587"
         inkscape:connector-curvature="0" />
    </g>
    <g
       transform="scale(1.0270279,0.97368338)"
       style="font-style:normal;font-weight:normal;font-size:8.85061741px;line-height:125%;font-family:sans-serif;letter-spacing:0px;word-spacing:0px;fill:#ffffff;fill-opacity:1;stroke:none;stroke-width:1px;stroke-linecap:butt;stroke-linejoin:miter;stroke-opacity:1"
       id="text4518">
      <path
         d="m 56.024999,392.10861 -1.184116,3.21094 2.372553,0 -1.188437,-3.21094 z m -0.492661,-0.86 0.989644,0 2.458985,6.45213 -0.907534,0 -0.587736,-1.65516 -2.908431,0 -0.587736,1.65516 -0.920499,0 2.463307,-6.45213 z"
         style="fill:#ffffff;fill-opacity:1;stroke:none;stroke-opacity:1"
         id="path4672" />
      <path
         d="m 63.211804,393.04639 0,0.74332 q -0.337084,-0.18583 -0.67849,-0.27659 -0.337084,-0.0951 -0.682811,-0.0951 -0.773565,0 -1.201402,0.49266 -0.427838,0.48834 -0.427838,1.37427 0,0.88592 0.427838,1.37858 0.427837,0.48834 1.201402,0.48834 0.345727,0 0.682811,-0.0908 0.341406,-0.0951 0.67849,-0.2809 l 0,0.73467 q -0.332762,0.15557 -0.691454,0.23336 -0.354371,0.0778 -0.756279,0.0778 -1.093362,0 -1.737279,-0.68713 -0.643917,-0.68714 -0.643917,-1.85396 0,-1.18412 0.648238,-1.86261 0.652561,-0.67849 1.784817,-0.67849 0.367335,0 0.717384,0.0778 0.350049,0.0735 0.67849,0.22472 z"
         style="fill:#ffffff;fill-opacity:1;stroke:none;stroke-opacity:1"
         id="path4674" />
      <path
         d="m 68.086558,393.04639 0,0.74332 q -0.337084,-0.18583 -0.67849,-0.27659 -0.337084,-0.0951 -0.682811,-0.0951 -0.773565,0 -1.201402,0.49266 -0.427838,0.48834 -0.427838,1.37427 0,0.88592 0.427838,1.37858 0.427837,0.48834 1.201402,0.48834 0.345727,0 0.682811,-0.0908 0.341406,-0.0951 0.67849,-0.2809 l 0,0.73467 q -0.332763,0.15557 -0.691455,0.23336 -0.35437,0.0778 -0.756278,0.0778 -1.093362,0 -1.737279,-0.68713 -0.643917,-0.68714 -0.643917,-1.85396 0,-1.18412 0.648238,-1.86261 0.65256,-0.67849 1.784817,-0.67849 0.367335,0 0.717384,0.0778 0.350049,0.0735 0.67849,0.22472 z"
         style="fill:#ffffff;fill-opacity:1;stroke:none;stroke-opacity:1"
         id="path4676" />
      <path
         d="m 73.618194,395.08186 0,0.38894 -3.656066,0 q 0.05186,0.82111 0.492661,1.25327 0.445124,0.42783 1.235975,0.42783 0.458089,0 0.885926,-0.11236 0.432159,-0.11236 0.855675,-0.33708 l 0,0.75195 q -0.427837,0.18151 -0.877283,0.27659 -0.449445,0.0951 -0.911855,0.0951 -1.158186,0 -1.836676,-0.67417 -0.674168,-0.67417 -0.674168,-1.82371 0,-1.18844 0.639595,-1.88421 0.643917,-0.7001 1.732958,-0.7001 0.976679,0 1.542808,0.63095 0.57045,0.62663 0.57045,1.70703 z m -0.795173,-0.23337 q -0.0086,-0.65256 -0.367335,-1.0415 -0.354371,-0.38894 -0.942107,-0.38894 -0.665525,0 -1.067433,0.37598 -0.397586,0.37598 -0.458088,1.05879 l 2.834963,-0.004 z"
         style="fill:#ffffff;fill-opacity:1;stroke:none;stroke-opacity:1"
         id="path4678" />
      <path
         d="m 78.946715,394.77935 0,2.92139 -0.795173,0 0,-2.89546 q 0,-0.68713 -0.267939,-1.02854 -0.267938,-0.34141 -0.803816,-0.34141 -0.643917,0 -1.015573,0.41056 -0.371657,0.41055 -0.371657,1.11929 l 0,2.73556 -0.799494,0 0,-4.84018 0.799494,0 0,0.75196 q 0.285225,-0.43648 0.669846,-0.65256 0.388944,-0.21608 0.89457,-0.21608 0.834067,0 1.261904,0.51859 0.427838,0.51427 0.427838,1.51688 z"
         style="fill:#ffffff;fill-opacity:1;stroke:none;stroke-opacity:1"
         id="path4680" />
      <path
         d="m 81.327912,391.4863 0,1.37426 1.637883,0 0,0.61799 -1.637883,0 0,2.62753 q 0,0.59206 0.159899,0.7606 0.16422,0.16854 0.661203,0.16854 l 0.816781,0 0,0.66552 -0.816781,0 q -0.920499,0 -1.270548,-0.3414 -0.350048,-0.34573 -0.350048,-1.25326 l 0,-2.62753 -0.583415,0 0,-0.61799 0.583415,0 0,-1.37426 0.799494,0 z"
         style="fill:#ffffff;fill-opacity:1;stroke:none;stroke-opacity:1"
         id="path4682" />
    </g>
    <path
       inkscape:connector-curvature="0"
       id="path4542"
       d="m 13.910207,350.96595 a 28.1388,28.576761 0 0 1 21.643818,-10.52507 28.1388,28.576761 0 0 1 21.767721,10.25814"
       style="display:inline;opacity:1;fill:none;fill-opacity:1;fill-rule:nonzero;stroke:#ffffff;stroke-width:1.06299222;stroke-miterlimit:4;stroke-dasharray:none;stroke-dashoffset:0;stroke-opacity:1" />
    <path
       inkscape:connector-curvature="0"
       id="path4544"
       d="m 57.594289,347.46843 0.83175,2.53216 0.888327,2.51946 -2.546463,-0.81561 -2.557572,-0.75875 1.714724,-1.71656 z"
       inkscape:transform-center-y="-0.089503129"
       inkscape:transform-center-x="0.078263168"
       style="display:inline;opacity:1;fill:#3e67d0;fill-opacity:1;fill-rule:nonzero;stroke:#ffffff;stroke-width:1.06299222;stroke-miterlimit:4;stroke-dasharray:none;stroke-dashoffset:0;stroke-opacity:1" />
    <path
       inkscape:connector-curvature="0"
       id="path4546"
       d="m 13.692191,347.46843 -0.83175,2.53216 -0.888327,2.51946 2.546463,-0.81561 2.557572,-0.75875 -1.714724,-1.71656 z"
       inkscape:transform-center-y="-0.089503129"
       inkscape:transform-center-x="-0.07826083"
       style="display:inline;opacity:1;fill:#3e67d0;fill-opacity:1;fill-rule:nonzero;stroke:#ffffff;stroke-width:1.06299222;stroke-miterlimit:4;stroke-dasharray:none;stroke-dashoffset:0;stroke-opacity:1" />
    <path
       inkscape:connector-curvature="0"
       id="path4558"
       d="m 91.35783,352.0081 c -16.824799,0.33963 -14.512774,23.04524 -30.310303,21.71581"
       style="fill:none;fill-rule:evenodd;stroke:#ffffff;stroke-width:1px;stroke-linecap:butt;stroke-linejoin:miter;stroke-opacity:1" />
    <path
       inkscape:connector-curvature="0"
       id="path4560"
       d="m 91.04524,352.00976 a 15.609828,15.571564 0 0 1 13.75979,7.8202 15.609828,15.571564 0 0 1 -0.17517,15.7965 15.609828,15.571564 0 0 1 -13.92984,7.51464"
       style="opacity:1;fill:none;fill-opacity:1;fill-rule:nonzero;stroke:#ffffff;stroke-width:1;stroke-miterlimit:4;stroke-dasharray:none;stroke-dashoffset:0;stroke-opacity:1" />
    <path
       inkscape:connector-curvature="0"
       id="path4562"
       d="m 64.176006,376.02098 -2.49445,-0.9388 -2.520018,-0.88676 2.231469,-1.47317 2.194123,-1.51747 0.262983,2.41199 z"
       inkscape:transform-center-y="-0.18173238"
       inkscape:transform-center-x="0.94159285"
       style="display:inline;opacity:1;fill:#3e67d0;fill-opacity:1;fill-rule:nonzero;stroke:#ffffff;stroke-width:1.06299222;stroke-miterlimit:4;stroke-dasharray:none;stroke-dashoffset:0;stroke-opacity:1" />
    <g
       id="g4609"
       style="font-style:normal;font-weight:normal;font-size:8.93097019px;line-height:125%;font-family:sans-serif;letter-spacing:0px;word-spacing:0px;fill:#ffffff;fill-opacity:1;stroke:none;stroke-width:1px;stroke-linecap:butt;stroke-linejoin:miter;stroke-opacity:1"
       transform="matrix(1.0625567,0,0,0.94112625,-0.876168,-134.45879)">
      <path
         inkscape:connector-curvature="0"
         id="path4611"
         d="m 22.145958,428.89816 5.507722,0 0,0.74134 -2.311237,0 0,5.76937 -0.885248,0 0,-5.76937 -2.311237,0 0,-0.74134 z"
         style="fill:#ffffff;fill-opacity:1" />
      <path
         inkscape:connector-curvature="0"
         id="path4613"
         d="m 29.995443,431.27481 q -0.135185,-0.0785 -0.296536,-0.11338 -0.15699,-0.0392 -0.348866,-0.0392 -0.680289,0 -1.046598,0.44481 -0.361948,0.44044 -0.361948,1.269 l 0,2.57288 -0.806753,0 0,-4.88412 0.806753,0 0,0.75878 q 0.252927,-0.4448 0.658484,-0.65848 0.405557,-0.21804 0.985547,-0.21804 0.08285,0 0.183154,0.0131 0.100299,0.009 0.222402,0.0305 l 0.0044,0.82419 z"
         style="fill:#ffffff;fill-opacity:1" />
      <path
         inkscape:connector-curvature="0"
         id="path4615"
         d="m 30.845804,430.52475 0.802392,0 0,4.88412 -0.802392,0 0,-4.88412 z m 0,-1.90132 0.802392,0 0,1.01607 -0.802392,0 0,-1.01607 z"
         style="fill:#ffffff;fill-opacity:1" />
      <path
         inkscape:connector-curvature="0"
         id="path4617"
         d="m 36.536681,432.91012 q 0,-0.87216 -0.361949,-1.35185 -0.357587,-0.4797 -1.00735,-0.4797 -0.645402,0 -1.007351,0.4797 -0.357588,0.47969 -0.357588,1.35185 0,0.86781 0.357588,1.3475 0.361949,0.47969 1.007351,0.47969 0.649763,0 1.00735,-0.47969 0.361949,-0.47969 0.361949,-1.3475 z m 0.802392,1.8926 q 0,1.2472 -0.553825,1.85335 -0.553825,0.61052 -1.696361,0.61052 -0.423,0 -0.798031,-0.0654 -0.375031,-0.061 -0.728258,-0.19187 l 0,-0.78059 q 0.353227,0.19188 0.697732,0.28345 0.344505,0.0916 0.702093,0.0916 0.789309,0 1.181784,-0.41428 0.392474,-0.40992 0.392474,-1.24283 l 0,-0.39684 q -0.248567,0.43172 -0.636681,0.6454 -0.388113,0.21368 -0.928855,0.21368 -0.89833,0 -1.447794,-0.68465 -0.549464,-0.68464 -0.549464,-1.8141 0,-1.13381 0.549464,-1.81846 0.549464,-0.68465 1.447794,-0.68465 0.540742,0 0.928855,0.21368 0.388114,0.21368 0.636681,0.6454 l 0,-0.74134 0.802392,0 0,4.27797 z"
         style="fill:#ffffff;fill-opacity:1" />
    </g>
    <path
       style="fill:none;fill-rule:evenodd;stroke:#e387a7;stroke-width:1px;stroke-linecap:butt;stroke-linejoin:miter;stroke-opacity:1"
       d="m 23.293093,272.93211 -3.818123,0 0,-29.49285 25.125082,0 0,28.61899 0,0.85152 -4.211059,0"
       id="path4619"
       inkscape:connector-curvature="0"
       sodipodi:nodetypes="ccccccc" />
    <rect
       style="opacity:1;fill:#dadad2;fill-opacity:1;fill-rule:nonzero;stroke:#d95e00;stroke-width:1;stroke-miterlimit:4;stroke-dasharray:none;stroke-dashoffset:0;stroke-opacity:1"
       id="rect4322"
       width="31.803902"
       height="28.623512"
       x="190.82341"
       y="595.17169" />
    <path
       style="opacity:1;fill:#dadad2;fill-opacity:1;fill-rule:nonzero;stroke:#d95e00;stroke-width:1;stroke-miterlimit:4;stroke-dasharray:none;stroke-dashoffset:0;stroke-opacity:1"
       d="m 191.27941,524.80797 0,-13.67567 15.26587,0 15.26588,0 0,13.67567 0,13.67568 -15.26588,0 -15.26587,0 0,-13.67568 z"
       id="path4324"
       inkscape:connector-curvature="0"
       transform="translate(0,84.775712)" />
    <rect
       style="opacity:1;fill:#dadace;fill-opacity:1;fill-rule:nonzero;stroke:#d95e00;stroke-width:1;stroke-miterlimit:4;stroke-dasharray:none;stroke-dashoffset:0;stroke-opacity:1"
       id="rect4326"
       width="36.256447"
       height="50.886242"
       x="176.19362"
       y="667.68457" />
    <g
       transform="matrix(1.0625567,0,0,0.94112625,-15.41451,0.05023923)"
       style="font-style:normal;font-weight:normal;font-size:8.93097019px;line-height:125%;font-family:sans-serif;letter-spacing:0px;word-spacing:0px;display:inline;fill:#ffffff;fill-opacity:1;stroke:none;stroke-width:1px;stroke-linecap:butt;stroke-linejoin:miter;stroke-opacity:1"
       id="text4590-7">
      <path
         d="m 22.145958,428.89816 5.507722,0 0,0.74134 -2.311237,0 0,5.76937 -0.885248,0 0,-5.76937 -2.311237,0 0,-0.74134 z"
         id="path4696-8"
         inkscape:connector-curvature="0"
         style="fill:#ffffff;fill-opacity:1" />
      <path
         d="m 29.995443,431.27481 q -0.135185,-0.0785 -0.296536,-0.11338 -0.15699,-0.0392 -0.348866,-0.0392 -0.680289,0 -1.046598,0.44481 -0.361948,0.44044 -0.361948,1.269 l 0,2.57288 -0.806753,0 0,-4.88412 0.806753,0 0,0.75878 q 0.252927,-0.4448 0.658484,-0.65848 0.405557,-0.21804 0.985547,-0.21804 0.08285,0 0.183154,0.0131 0.100299,0.009 0.222402,0.0305 l 0.0044,0.82419 z"
         id="path4698-0"
         inkscape:connector-curvature="0"
         style="fill:#ffffff;fill-opacity:1" />
      <path
         d="m 30.845804,430.52475 0.802392,0 0,4.88412 -0.802392,0 0,-4.88412 z m 0,-1.90132 0.802392,0 0,1.01607 -0.802392,0 0,-1.01607 z"
         id="path4700-4"
         inkscape:connector-curvature="0"
         style="fill:#ffffff;fill-opacity:1" />
      <path
         d="m 36.536681,432.91012 q 0,-0.87216 -0.361949,-1.35185 -0.357587,-0.4797 -1.00735,-0.4797 -0.645402,0 -1.007351,0.4797 -0.357588,0.47969 -0.357588,1.35185 0,0.86781 0.357588,1.3475 0.361949,0.47969 1.007351,0.47969 0.649763,0 1.00735,-0.47969 0.361949,-0.47969 0.361949,-1.3475 z m 0.802392,1.8926 q 0,1.2472 -0.553825,1.85335 -0.553825,0.61052 -1.696361,0.61052 -0.423,0 -0.798031,-0.0654 -0.375031,-0.061 -0.728258,-0.19187 l 0,-0.78059 q 0.353227,0.19188 0.697732,0.28345 0.344505,0.0916 0.702093,0.0916 0.789309,0 1.181784,-0.41428 0.392474,-0.40992 0.392474,-1.24283 l 0,-0.39684 q -0.248567,0.43172 -0.636681,0.6454 -0.388113,0.21368 -0.928855,0.21368 -0.89833,0 -1.447794,-0.68465 -0.549464,-0.68464 -0.549464,-1.8141 0,-1.13381 0.549464,-1.81846 0.549464,-0.68465 1.447794,-0.68465 0.540742,0 0.928855,0.21368 0.388114,0.21368 0.636681,0.6454 l 0,-0.74134 0.802392,0 0,4.27797 z"
         id="path4702-1"
         inkscape:connector-curvature="0"
         style="fill:#ffffff;fill-opacity:1" />
    </g>
    <g
       transform="matrix(1.0760727,0,0,0.92930525,0.5854903,0.05023923)"
       style="font-style:normal;font-weight:normal;font-size:8.92908955px;line-height:125%;font-family:sans-serif;letter-spacing:0px;word-spacing:0px;display:inline;fill:#ffffff;fill-opacity:1;stroke:none;stroke-width:1px;stroke-linecap:butt;stroke-linejoin:miter;stroke-opacity:1"
       id="text4287">
      <path
         inkscape:connector-curvature="0"
         d="m 89.909474,434.99309 q -0.959179,0 -1.525967,0.71502 -0.562428,0.71503 -0.562428,1.94888 0,1.22949 0.562428,1.94452 0.566788,0.71502 1.525967,0.71502 0.95918,0 1.517248,-0.71502 0.562428,-0.71503 0.562428,-1.94452 0,-1.23385 -0.562428,-1.94888 -0.558068,-0.71502 -1.517248,-0.71502 z m 0,-0.71503 q 1.369011,0 2.188674,0.91994 0.819662,0.91558 0.819662,2.45899 0,1.53905 -0.819662,2.45899 -0.819663,0.91558 -2.188674,0.91558 -1.37337,0 -2.197393,-0.91558 -0.819662,-0.91558 -0.819662,-2.45899 0,-1.54341 0.819662,-2.45899 0.824023,-0.91994 2.197393,-0.91994 z"
         id="path4379"
         style="fill:#ffffff;fill-opacity:1" />
      <path
         inkscape:connector-curvature="0"
         d="m 94.177823,438.97804 0,-2.95601 0.802223,0 0,2.92549 q 0,0.69323 0.270314,1.04202 0.270315,0.34443 0.810943,0.34443 0.649626,0 1.024578,-0.41419 0.379312,-0.41419 0.379312,-1.12921 l 0,-2.76854 0.802223,0 0,4.88309 -0.802223,0 0,-0.7499 q -0.292114,0.44471 -0.680145,0.6627 -0.383672,0.21364 -0.893781,0.21364 -0.841462,0 -1.277453,-0.52319 -0.435991,-0.52319 -0.435991,-1.53033 z m 2.018637,-3.07373 0,0 z"
         id="path4381"
         style="fill:#ffffff;fill-opacity:1" />
      <path
         inkscape:connector-curvature="0"
         d="m 100.72204,434.63557 0,1.38646 1.65241,0 0,0.62346 -1.65241,0 0,2.65083 q 0,0.5973 0.16132,0.76734 0.16568,0.17004 0.66707,0.17004 l 0.82402,0 0,0.67142 -0.82402,0 q -0.92866,0 -1.28182,-0.34443 -0.35315,-0.34879 -0.35315,-1.26437 l 0,-2.65083 -0.588587,0 0,-0.62346 0.588587,0 0,-1.38646 0.80658,0 z"
         id="path4383"
         style="fill:#ffffff;fill-opacity:1" />
    </g>
    <g
       transform="matrix(1.0760727,0,0,0.92930525,0.5854903,0.05023923)"
       style="font-style:normal;font-weight:normal;font-size:8.92908955px;line-height:125%;font-family:sans-serif;letter-spacing:0px;word-spacing:0px;display:inline;fill:#ffffff;fill-opacity:1;stroke:none;stroke-width:1px;stroke-linecap:butt;stroke-linejoin:miter;stroke-opacity:1"
       id="text4311">
      <path
         inkscape:connector-curvature="0"
         d="m 35.955908,434.89717 0,0.92866 q -0.444711,-0.41419 -0.95046,-0.61911 -0.501389,-0.20491 -1.068177,-0.20491 -1.116136,0 -1.709083,0.6845 -0.592948,0.68015 -0.592948,1.97068 0,1.28617 0.592948,1.97068 0.592947,0.68014 1.709083,0.68014 0.566788,0 1.068177,-0.20491 0.505749,-0.20492 0.95046,-0.61911 l 0,0.91994 q -0.46215,0.31391 -0.980979,0.47087 -0.514469,0.15696 -1.089977,0.15696 -1.478008,0 -2.32819,-0.9025 -0.850182,-0.90686 -0.850182,-2.47207 0,-1.56957 0.850182,-2.47207 0.850182,-0.90686 2.32819,-0.90686 0.584228,0 1.098697,0.15696 0.518829,0.1526 0.972259,0.46215 z"
         id="path4368-4"
         style="fill:#ffffff;fill-opacity:1" />
      <path
         inkscape:connector-curvature="0"
         d="m 41.349113,437.95782 0,2.9473 -0.802223,0 0,-2.92114 q 0,-0.69322 -0.270314,-1.03765 -0.270314,-0.34444 -0.810943,-0.34444 -0.649626,0 -1.024578,0.41419 -0.374952,0.41419 -0.374952,1.12922 l 0,2.75982 -0.806583,0 0,-6.78401 0.806583,0 0,2.65954 q 0.287754,-0.44035 0.675785,-0.65835 0.392392,-0.21799 0.902501,-0.21799 0.841462,0 1.273093,0.52319 0.431631,0.51883 0.431631,1.53032 z"
         id="path4370"
         style="fill:#ffffff;fill-opacity:1" />
      <path
         inkscape:connector-curvature="0"
         d="m 44.850119,436.58445 q -0.645267,0 -1.020219,0.50575 -0.374952,0.50139 -0.374952,1.37773 0,0.87634 0.370593,1.38209 0.374952,0.50139 1.024578,0.50139 0.640906,0 1.015858,-0.50575 0.374952,-0.50575 0.374952,-1.37773 0,-0.86762 -0.374952,-1.37337 -0.374952,-0.51011 -1.015858,-0.51011 z m 0,-0.68014 q 1.046377,0 1.643685,0.68014 0.597307,0.68015 0.597307,1.88348 0,1.19898 -0.597307,1.88348 -0.597308,0.68015 -1.643685,0.68015 -1.050738,0 -1.648045,-0.68015 -0.592948,-0.6845 -0.592948,-1.88348 0,-1.20333 0.592948,-1.88348 0.597307,-0.68014 1.648045,-0.68014 z"
         id="path4372"
         style="fill:#ffffff;fill-opacity:1" />
      <path
         inkscape:connector-curvature="0"
         d="m 48.386003,434.12111 0.806582,0 0,4.00675 2.393589,-2.10583 1.024578,0 -2.589784,2.28459 2.698782,2.5985 -1.046378,0 -2.480787,-2.38487 0,2.38487 -0.806582,0 0,-6.78401 z"
         id="path4374"
         style="fill:#ffffff;fill-opacity:1" />
      <path
         inkscape:connector-curvature="0"
         d="m 57.458969,438.26302 0,0.39239 -3.688482,0 q 0.05232,0.82838 0.49703,1.26437 0.44907,0.43163 1.246933,0.43163 0.46215,0 0.893781,-0.11335 0.435991,-0.11336 0.863262,-0.34008 l 0,0.75863 q -0.431631,0.18311 -0.885061,0.27903 -0.453431,0.0959 -0.919941,0.0959 -1.168455,0 -1.85296,-0.68015 -0.680146,-0.68014 -0.680146,-1.83988 0,-1.19897 0.645267,-1.90092 0.649626,-0.7063 1.748322,-0.7063 0.985339,0 1.556487,0.63654 0.575508,0.63219 0.575508,1.72217 z m -0.802223,-0.23544 q -0.0087,-0.65834 -0.370592,-1.05074 -0.357513,-0.39239 -0.95046,-0.39239 -0.671426,0 -1.076897,0.37931 -0.401111,0.37932 -0.46215,1.06818 l 2.860099,-0.004 z"
         id="path4376"
         style="fill:#ffffff;fill-opacity:1" />
    </g>
    <g
       transform="matrix(1.0760727,0,0,0.92930525,0.5854903,0.05023923)"
       style="font-style:normal;font-weight:normal;font-size:8.92908955px;line-height:125%;font-family:sans-serif;letter-spacing:0px;word-spacing:0px;display:inline;fill:#ffffff;fill-opacity:1;stroke:none;stroke-width:1px;stroke-linecap:butt;stroke-linejoin:miter;stroke-opacity:1"
       id="text4315">
      <path
         inkscape:connector-curvature="0"
         d="m 66.621038,437.85319 q 0.283394,0.0959 0.549348,0.40983 0.270315,0.31391 0.540629,0.86326 l 0.893781,1.77884 -0.9461,0 -0.832742,-1.66984 q -0.322633,-0.65399 -0.627827,-0.86763 -0.300833,-0.21363 -0.824022,-0.21363 l -0.95918,0 0,2.7511 -0.880701,0 0,-6.50934 1.988118,0 q 1.116136,0 1.665484,0.46651 0.549348,0.46651 0.549348,1.40825 0,0.61475 -0.287754,1.02022 -0.283393,0.40547 -0.828382,0.56243 z m -2.206113,-2.73367 0,2.31075 1.107417,0 q 0.636546,0 0.959179,-0.29211 0.326993,-0.29647 0.326993,-0.86762 0,-0.57115 -0.326993,-0.8589 -0.322633,-0.29212 -0.959179,-0.29212 l -1.107417,0 z"
         id="path4361"
         style="fill:#ffffff;fill-opacity:1" />
      <path
         inkscape:connector-curvature="0"
         d="m 73.483532,438.26302 0,0.39239 -3.688482,0 q 0.05232,0.82838 0.49703,1.26437 0.44907,0.43163 1.246933,0.43163 0.46215,0 0.893781,-0.11335 0.435991,-0.11336 0.863262,-0.34008 l 0,0.75863 q -0.431631,0.18311 -0.885062,0.27903 -0.45343,0.0959 -0.91994,0.0959 -1.168455,0 -1.85296,-0.68015 -0.680146,-0.68014 -0.680146,-1.83988 0,-1.19897 0.645266,-1.90092 0.649626,-0.7063 1.748323,-0.7063 0.985339,0 1.556487,0.63654 0.575508,0.63219 0.575508,1.72217 z m -0.802223,-0.23544 q -0.0087,-0.65834 -0.370592,-1.05074 -0.357513,-0.39239 -0.95046,-0.39239 -0.671426,0 -1.076897,0.37931 -0.401112,0.37932 -0.46215,1.06818 l 2.860099,-0.004 z"
         id="path4363"
         style="fill:#ffffff;fill-opacity:1" />
      <path
         inkscape:connector-curvature="0"
         d="m 74.224716,436.02203 0.850181,0 1.525968,4.09831 1.525967,-4.09831 0.850182,0 -1.831161,4.88309 -1.089977,0 -1.83116,-4.88309 z"
         id="path4365"
         style="fill:#ffffff;fill-opacity:1" />
    </g>
    <g
       transform="matrix(0.9898928,0,0,1.0102104,-1.9971741,-0.13343787)"
       style="font-style:normal;font-variant:normal;font-weight:normal;font-stretch:normal;font-size:12.45287514px;line-height:125%;font-family:'Good Times';-inkscape-font-specification:'Good Times, Normal';text-align:start;letter-spacing:0px;word-spacing:0px;writing-mode:lr-tb;text-anchor:start;display:inline;fill:#47ae8c;fill-opacity:1;stroke:#47ae8c;stroke-width:1;stroke-linecap:butt;stroke-linejoin:miter;stroke-miterlimit:4;stroke-dasharray:none;stroke-opacity:1"
       id="text4292-9">
      <path
         inkscape:connector-curvature="0"
         d="m 22.885015,108.14406 0,-1.53171 3.63624,0 q 0.834342,0 1.295099,-0.47321 0.473209,-0.4732 0.473209,-1.24528 0,-0.78453 -0.473209,-1.24529 -0.460757,-0.46076 -1.295099,-0.46076 l -4.794357,0 0,7.47173 -1.569062,0 0,-9.05324 6.363419,0 q 0.784531,0 1.394722,0.2366 0.622643,0.22415 1.046041,0.64755 0.423398,0.41095 0.64755,1.00869 0.224151,0.59773 0.224151,1.34491 0,0.73472 -0.224151,1.34491 -0.224152,0.59773 -0.64755,1.03358 -0.423398,0.43586 -1.046041,0.68491 -0.610191,0.23661 -1.394722,0.23661 l -3.63624,0 z"
         style="fill:#47ae8c;fill-opacity:1;stroke:#47ae8c;stroke-opacity:1"
         id="path4314" />
      <path
         inkscape:connector-curvature="0"
         d="m 35.091168,110.65954 q -0.946419,0 -1.755855,-0.34868 -0.796985,-0.36114 -1.394723,-0.97133 -0.585285,-0.62264 -0.921512,-1.46944 -0.323775,-0.84679 -0.323775,-1.83057 0,-0.99623 0.323775,-1.81812 0.336227,-0.82189 0.921512,-1.39472 0.597738,-0.58529 1.394723,-0.89661 0.809436,-0.32377 1.755855,-0.32377 l 4.906433,0 0,1.58151 -4.906433,0 q -0.610191,0 -1.133212,0.22415 -0.510568,0.2117 -0.884154,0.59774 -0.373586,0.38604 -0.585285,0.92152 -0.211699,0.53547 -0.211699,1.18302 0,0.6351 0.211699,1.18302 0.211699,0.54793 0.585285,0.94642 0.373586,0.38604 0.884154,0.61019 0.523021,0.22415 1.133212,0.22415 l 4.906433,0 0,1.58152 -4.906433,0 z"
         style="fill:#47ae8c;fill-opacity:1;stroke:#47ae8c;stroke-opacity:1"
         id="path4316" />
      <path
         inkscape:connector-curvature="0"
         d="m 52.539203,110.65954 -1.73095,-6.36342 -2.565292,5.89021 q -0.136982,0.28642 -0.336228,0.4483 -0.186793,0.14944 -0.473209,0.14944 -0.56038,0 -0.809437,-0.59774 l -2.55284,-5.89021 -1.730949,6.36342 -1.55661,0 2.328688,-8.51777 q 0.161887,-0.64755 0.784531,-0.64755 0.249058,0 0.460757,0.13698 0.224151,0.13699 0.336227,0.3985 l 2.789444,6.40077 2.789444,-6.40077 q 0.224152,-0.53548 0.759626,-0.53548 0.572832,0 0.759625,0.64755 l 2.316235,8.51777 -1.569062,0 z"
         style="fill:#47ae8c;fill-opacity:1;stroke:#47ae8c;stroke-opacity:1"
         id="path4318" />
    </g>
    <g
       id="g4305"
       transform="matrix(0.77588736,0,0,1.0157296,20.035762,-4.9395468)">
      <g
         transform="scale(1.0320983,0.96889993)"
         style="font-style:normal;font-variant:normal;font-weight:normal;font-stretch:normal;font-size:17.49869919px;line-height:125%;font-family:'Good Times';-inkscape-font-specification:'Good Times, Normal';text-align:start;letter-spacing:0px;word-spacing:0px;writing-mode:lr-tb;text-anchor:start;fill:none;fill-opacity:1;stroke:#ffffff;stroke-width:1.12644923;stroke-linecap:butt;stroke-linejoin:miter;stroke-miterlimit:4;stroke-dasharray:none;stroke-opacity:1"
         id="text4292">
        <path
           d="m 75.911137,201.08035 -3.219761,-3.53473 -4.759646,0 0,-1.95986 5.302106,0 q 1.20741,0 1.819865,-0.64745 0.612454,-0.66495 0.612454,-1.90736 0,-1.24241 -0.647452,-1.83736 -0.629953,-0.61246 -1.784867,-0.61246 l -6.929485,0 0,10.49922 -2.204836,0 0,-12.72155 9.134321,0 q 1.084919,0 1.942356,0.33247 0.857436,0.31498 1.452392,0.92743 0.594955,0.59496 0.909932,1.4524 0.314977,0.85743 0.314977,1.92485 0,1.59239 -0.699948,2.6773 -0.68245,1.06743 -1.924857,1.53989 l 3.832215,3.86721 -3.149766,0 z"
           style="fill:none;stroke:#ffffff;stroke-width:1.12644923;stroke-opacity:1"
           id="path4315" />
      </g>
      <g
         transform="scale(1.0320983,0.96889994)"
         style="font-style:normal;font-variant:normal;font-weight:normal;font-stretch:normal;font-size:17.49869919px;line-height:125%;font-family:'Good Times';-inkscape-font-specification:'Good Times, Normal';text-align:start;letter-spacing:0px;word-spacing:0px;writing-mode:lr-tb;text-anchor:start;fill:#ffffff;fill-opacity:1;stroke:#ffffff;stroke-width:1.12644923;stroke-linecap:butt;stroke-linejoin:miter;stroke-miterlimit:4;stroke-dasharray:none;stroke-opacity:1"
         id="text4297">
        <path
           d="m 81.651268,201.08035 0,0 z m 13.508996,0 -5.337104,-5.19711 -5.284607,5.19711 -2.887285,0 6.824492,-6.61451 -6.334529,-6.10704 3.062273,0 4.847139,4.70715 4.777145,-4.70715 2.887286,0 -6.334529,6.10704 6.894487,6.61451 -3.114768,0 z"
           style="fill:#ffffff;fill-opacity:1;stroke:#ffffff;stroke-width:1.12644923;stroke-opacity:1"
           id="path4319" />
      </g>
      <g
         transform="scale(1.0320983,0.96889995)"
         style="font-style:normal;font-variant:normal;font-weight:normal;font-stretch:normal;font-size:17.49869919px;line-height:125%;font-family:'Good Times';-inkscape-font-specification:'Good Times, Normal';text-align:start;letter-spacing:0px;word-spacing:0px;writing-mode:lr-tb;text-anchor:start;fill:none;fill-opacity:1;stroke:#ffffff;stroke-width:1.12644923;stroke-linecap:butt;stroke-linejoin:miter;stroke-miterlimit:4;stroke-dasharray:none;stroke-opacity:1"
         id="text4301">
        <path
           d="m 101.89918,201.08035 0,-2.22233 9.53679,0 q 0.89243,0 1.3649,-0.45497 0.47246,-0.45496 0.47246,-1.20741 0,-0.82244 -0.47246,-1.22491 -0.47247,-0.41997 -1.3649,-0.41997 l -9.53679,0 0,-7.19196 12.86154,0 0,2.22233 -10.56921,0 0,3.09727 7.24446,0 q 1.92486,0 2.92228,0.90994 1.01493,0.90993 1.01493,2.76479 0,0.80494 -0.24498,1.48739 -0.24499,0.68245 -0.73495,1.18991 -0.48996,0.48996 -1.22491,0.76994 -0.73494,0.27998 -1.73237,0.27998 l -9.53679,0 z"
           style="fill:none;fill-opacity:1;stroke:#ffffff;stroke-width:1.12644923;stroke-opacity:1"
           id="path4322" />
      </g>
    </g>
    <g
       style="font-style:normal;font-variant:normal;font-weight:normal;font-stretch:normal;font-size:16.95874977px;line-height:125%;font-family:'Adobe Caslon Pro';-inkscape-font-specification:'Adobe Caslon Pro, Normal';text-align:start;letter-spacing:0px;word-spacing:0px;writing-mode:lr-tb;text-anchor:start;fill:#ffffff;fill-opacity:1;stroke:none;stroke-width:1px;stroke-linecap:butt;stroke-linejoin:miter;stroke-opacity:1"
       id="text4284">
      <path
         d="m 88.23743,203.53641 c 0,0.89882 -0.05088,4.56191 -0.08479,4.81629 -0.06784,0.44093 -0.423969,0.4918 -0.763144,0.4918 l -0.94969,0 c -0.08479,0 -0.13567,0.0339 -0.13567,0.10175 l 0,0.45789 c 0,0.0678 0.05088,0.10175 0.13567,0.10175 0.186547,0 0.915773,-0.0509 2.526854,-0.0509 1.475411,0 2.153761,0.0509 2.357266,0.0509 0.101753,0 0.152629,-0.0339 0.152629,-0.10175 l 0,-0.44093 c 0,-0.0848 -0.05088,-0.11871 -0.13567,-0.11871 l -0.695309,0 c -0.54268,0 -0.797061,-0.0848 -0.797061,-0.61051 0,-0.18655 -0.05088,-4.10402 -0.05088,-4.27361 l 0,-1.30582 c 0,-0.20351 0.05088,-3.95139 0.05088,-4.12098 0,-0.33917 0.254381,-0.47484 0.593556,-0.47484 l 0.797062,0 c 0.08479,0 0.13567,-0.0339 0.13567,-0.11871 l 0,-0.42397 c 0,-0.0678 -0.03392,-0.11871 -0.118712,-0.11871 -0.237422,0 -0.780102,0.0509 -2.289431,0.0509 -1.577164,0 -2.44206,-0.0509 -2.645565,-0.0509 -0.06784,0 -0.118711,0.0339 -0.118711,0.10175 l 0,0.45788 c 0,0.0678 0.05088,0.10176 0.13567,0.10176 l 0.983607,0 c 0.644433,0 0.81402,0.16958 0.847938,0.57659 0.01696,0.25439 0.06784,3.30696 0.06784,3.71397 l 0,1.18711 z"
         style=""
         id="path4289" />
      <path
         d="m 94.696329,203.53641 c 0,0.89882 -0.05088,4.56191 -0.08479,4.81629 -0.06784,0.44093 -0.423969,0.4918 -0.763144,0.4918 l -0.94969,0 c -0.08479,0 -0.13567,0.0339 -0.13567,0.10175 l 0,0.45789 c 0,0.0678 0.05088,0.10175 0.13567,0.10175 0.186547,0 0.915773,-0.0509 2.526854,-0.0509 1.475411,0 2.153761,0.0509 2.357266,0.0509 0.101753,0 0.152629,-0.0339 0.152629,-0.10175 l 0,-0.44093 c 0,-0.0848 -0.05088,-0.11871 -0.13567,-0.11871 l -0.695309,0 c -0.54268,0 -0.797061,-0.0848 -0.797061,-0.61051 0,-0.18655 -0.05088,-4.10402 -0.05088,-4.27361 l 0,-1.30582 c 0,-0.20351 0.05088,-3.95139 0.05088,-4.12098 0,-0.33917 0.254381,-0.47484 0.593556,-0.47484 l 0.797062,0 c 0.08479,0 0.13567,-0.0339 0.13567,-0.11871 l 0,-0.42397 c 0,-0.0678 -0.03392,-0.11871 -0.118712,-0.11871 -0.237422,0 -0.780102,0.0509 -2.289431,0.0509 -1.577164,0 -2.44206,-0.0509 -2.645565,-0.0509 -0.06784,0 -0.118711,0.0339 -0.118711,0.10175 l 0,0.45788 c 0,0.0678 0.05088,0.10176 0.13567,0.10176 l 0.983607,0 c 0.644433,0 0.81402,0.16958 0.847938,0.57659 0.01696,0.25439 0.06784,3.30696 0.06784,3.71397 l 0,1.18711 z"
         style=""
         id="path4291" />
    </g>
  </g>
</svg>
