<?xml version="1.0" encoding="UTF-8" standalone="no"?>
<!-- Created with Inkscape (http://www.inkscape.org/) -->

<svg
   xmlns:dc="http://purl.org/dc/elements/1.1/"
   xmlns:cc="http://creativecommons.org/ns#"
   xmlns:rdf="http://www.w3.org/1999/02/22-rdf-syntax-ns#"
   xmlns:svg="http://www.w3.org/2000/svg"
   xmlns="http://www.w3.org/2000/svg"
   xmlns:xlink="http://www.w3.org/1999/xlink"
   xmlns:sodipodi="http://sodipodi.sourceforge.net/DTD/sodipodi-0.dtd"
   xmlns:inkscape="http://www.inkscape.org/namespaces/inkscape"
   width="480"
   height="380"
   viewBox="0 0 135.46666 107.24445"
   version="1.1"
   id="svg16908"
   inkscape:version="0.91 r13725"
   sodipodi:docname="octoplex.svg">
  <defs
     id="defs16902">
    <linearGradient
       inkscape:collect="always"
       id="linearGradient4582">
      <stop
         style="stop-color:#000000;stop-opacity:1"
         offset="0"
         id="stop4584" />
      <stop
         style="stop-color:#00000c;stop-opacity:0"
         offset="1"
         id="stop4586" />
    </linearGradient>
    <linearGradient
       inkscape:collect="always"
       xlink:href="#linearGradient4582"
       id="linearGradient4588"
       x1="326.47656"
       y1="255.43776"
       x2="333.81683"
       y2="2.8608181"
       gradientUnits="userSpaceOnUse"
       gradientTransform="matrix(0.63198181,0,0,1,84.995614,0.10064842)" />
    <linearGradient
       inkscape:collect="always"
       xlink:href="#linearGradient4582"
       id="linearGradient4662"
       gradientUnits="userSpaceOnUse"
       x1="326.47656"
       y1="255.43776"
       x2="333.81683"
       y2="2.8608181"
       gradientTransform="matrix(0.72219635,0,0,1,65.116562,0.59406821)" />
  </defs>
  <sodipodi:namedview
     id="base"
     pagecolor="#58ffff"
     bordercolor="#666666"
     borderopacity="1.0"
     inkscape:pageopacity="0"
     inkscape:pageshadow="2"
     inkscape:zoom="1.0515153"
     inkscape:cx="171.19039"
     inkscape:cy="102.85148"
     inkscape:document-units="mm"
     inkscape:current-layer="layer1"
     showgrid="false"
     fit-margin-top="0"
     fit-margin-left="0"
     fit-margin-right="0"
     fit-margin-bottom="0"
     inkscape:window-width="1920"
     inkscape:window-height="1018"
     inkscape:window-x="-8"
     inkscape:window-y="-8"
     inkscape:window-maximized="1"
     units="px"
     showguides="false" />
  <metadata
     id="metadata16905">
    <rdf:RDF>
      <cc:Work
         rdf:about="">
        <dc:format>image/svg+xml</dc:format>
        <dc:type
           rdf:resource="http://purl.org/dc/dcmitype/StillImage" />
        <dc:title></dc:title>
      </cc:Work>
    </rdf:RDF>
  </metadata>
  <g
     inkscape:label="Layer 1"
     inkscape:groupmode="layer"
     id="layer1"
     transform="translate(-231.55376,-23.655165)">
    <rect
       style="opacity:1;fill:url(#linearGradient4588);fill-opacity:1;fill-rule:nonzero;stroke:#40413e;stroke-width:0.25;stroke-miterlimit:4;stroke-dasharray:none;stroke-dashoffset:0;stroke-opacity:1"
       id="rect4580"
       width="118.45245"
       height="108.38613"
       x="230.95493"
       y="22.913546" />
    <rect
       y="23.453804"
       x="231.3656"
       height="107.51489"
       width="135.95477"
       id="rect4155"
       style="opacity:1;fill:#25232e;fill-opacity:1;fill-rule:nonzero;stroke:none;stroke-width:0.29999995;stroke-miterlimit:4;stroke-dasharray:none;stroke-dashoffset:0;stroke-opacity:1" />
    <path
       style="opacity:1;fill:url(#linearGradient4662);fill-opacity:1;fill-rule:nonzero;stroke:#40413e;stroke-width:0.25;stroke-miterlimit:4;stroke-dasharray:none;stroke-dashoffset:0;stroke-opacity:1"
       d="m 231.91138,23.406963 135.36137,0 0,108.386127 -135.36137,0 z"
       id="rect4660-5"
       inkscape:connector-curvature="0" />
    <rect
       style="opacity:1;fill:#00000c;fill-opacity:0;fill-rule:nonzero;stroke:#40413e;stroke-width:0.25;stroke-miterlimit:4;stroke-dasharray:none;stroke-dashoffset:0;stroke-opacity:1"
       id="rect4590"
       width="21.856871"
       height="8.0840483"
       x="227.66144"
       y="247.07037" />
    <g
       transform="matrix(0.34548524,0,0,0.23054355,282.62911,-1.0544453)"
       style="font-style:normal;font-variant:normal;font-weight:normal;font-stretch:normal;font-size:9.8737545px;line-height:125%;font-family:'Good Times';-inkscape-font-specification:'Good Times, Normal';text-align:start;letter-spacing:0px;word-spacing:0px;writing-mode:lr-tb;text-anchor:start;display:inline;fill:#006cb4;fill-opacity:1;stroke:none;stroke-width:4;stroke-linecap:butt;stroke-linejoin:miter;stroke-miterlimit:4;stroke-dasharray:none;stroke-opacity:1"
       id="text4175-9">
      <path
         inkscape:connector-curvature="0"
         d="m 37.154632,564.06331 0,-3.1201 -3.613794,0 0,-1.11574 3.613794,0 0,-2.972 1.253967,0 0,7.20784 -1.253967,0 z m -5.776146,0 0,-7.20784 1.253967,0 0,7.20784 -1.253967,0 z"
         style="fill:#006cb4;fill-opacity:1;stroke:none;stroke-width:4;stroke-miterlimit:4;stroke-dasharray:none"
         id="path4651-6" />
      <path
         inkscape:connector-curvature="0"
         d="m 42.929699,564.03369 q -0.750406,0 -1.3922,-0.27646 -0.63192,-0.28634 -1.10586,-0.77016 -0.464067,-0.49368 -0.730658,-1.1651 -0.256717,-0.67141 -0.256717,-1.45144 0,-0.7899 0.256717,-1.44157 0.266591,-0.65167 0.730658,-1.10586 0.47394,-0.46407 1.10586,-0.71091 0.641794,-0.25672 1.3922,-0.25672 l 1.747654,0 q 0.780027,0 1.421821,0.25672 0.651668,0.25672 1.115734,0.72078 0.464067,0.46407 0.720784,1.11574 0.256718,0.64179 0.256718,1.42182 0,0.78003 -0.266591,1.45144 -0.256718,0.67142 -0.730658,1.1651 -0.464067,0.48382 -1.105861,0.77016 -0.641794,0.27646 -1.411947,0.27646 l -1.747654,0 z m 1.747654,-1.25397 q 0.493688,0 0.908386,-0.17772 0.414697,-0.17773 0.71091,-0.48382 0.306087,-0.31596 0.47394,-0.7504 0.167854,-0.43445 0.167854,-0.93801 0,-0.50356 -0.167854,-0.92813 -0.167853,-0.43445 -0.47394,-0.74053 -0.296213,-0.30609 -0.71091,-0.47394 -0.414698,-0.17773 -0.908386,-0.17773 l -1.747654,0 q -0.483814,0 -0.898512,0.17773 -0.404824,0.16785 -0.701036,0.47394 -0.296213,0.30608 -0.464067,0.73065 -0.167854,0.42458 -0.167854,0.93801 0,0.50356 0.167854,0.93801 0.167854,0.43444 0.464067,0.7504 0.296212,0.30609 0.701036,0.48382 0.414698,0.17772 0.898512,0.17772 l 1.747654,0 z"
         style="fill:#006cb4;fill-opacity:1;stroke:none;stroke-width:4;stroke-miterlimit:4;stroke-dasharray:none"
         id="path4653-0" />
      <path
         inkscape:connector-curvature="0"
         d="m 55.881596,564.03369 -1.816771,-1.9945 -2.685662,0 0,-1.10586 2.991748,0 q 0.681289,0 1.026871,-0.36533 0.345581,-0.3752 0.345581,-1.07624 0,-0.70103 -0.365329,-1.03674 -0.355455,-0.34558 -1.007123,-0.34558 l -3.910007,0 0,5.92425 -1.244093,0 0,-7.17822 5.1541,0 q 0.612173,0 1.095987,0.1876 0.483814,0.17773 0.819521,0.52331 0.335708,0.33571 0.513436,0.81952 0.177727,0.48382 0.177727,1.08612 0,0.89851 -0.39495,1.51068 -0.385076,0.6023 -1.086113,0.86889 l 2.162352,2.1821 -1.777275,0 z"
         style="fill:#006cb4;fill-opacity:1;stroke:none;stroke-width:4;stroke-miterlimit:4;stroke-dasharray:none"
         id="path4658-4" />
      <path
         inkscape:connector-curvature="0"
         d="m 65.803485,564.03369 -1.07624,-1.8069 -3.396571,0 0.592425,-1.01699 2.201847,0 -1.599548,-2.68566 -3.258339,5.50955 -1.431694,0 4.127229,-6.87213 q 0.108611,-0.1876 0.256718,-0.29621 0.148106,-0.10862 0.355455,-0.10862 0.207349,0 0.345581,0.10862 0.148107,0.10861 0.256718,0.29621 l 4.137103,6.87213 -1.510684,0 z"
         style="fill:#006cb4;fill-opacity:1;stroke:none;stroke-width:4;stroke-miterlimit:4;stroke-dasharray:none"
         id="path4660-3" />
    </g>
    <rect
       style="opacity:1;fill:#006cb4;fill-opacity:1;fill-rule:nonzero;stroke:none;stroke-width:0.42333335;stroke-miterlimit:4;stroke-dasharray:none;stroke-dashoffset:0;stroke-opacity:1"
       id="rect5165"
       width="49.553558"
       height="3.6396241"
       x="277.75137"
       y="26.663094"
       ry="1.3648589" />
  </g>
</svg>
